<svg width="45" height="45" viewBox="0 0 45 45" fill="none" xmlns="http://www.w3.org/2000/svg">
<path d="M17.3438 41.25L16.5938 35.25C16.1875 35.0937 15.805 34.9062 15.4462 34.6875C15.0863 34.4688 14.7344 34.2344 14.3906 33.9844L8.8125 36.3281L3.65625 27.4219L8.48438 23.7656C8.45312 23.5469 8.4375 23.3356 8.4375 23.1319V21.8662C8.4375 21.6637 8.45312 21.4531 8.48438 21.2344L3.65625 17.5781L8.8125 8.67188L14.3906 11.0156C14.7344 10.7656 15.0938 10.5312 15.4688 10.3125C15.8438 10.0938 16.2188 9.90625 16.5938 9.75L17.3438 3.75H27.6562L28.4062 9.75C28.8125 9.90625 29.1956 10.0938 29.5556 10.3125C29.9144 10.5312 30.2656 10.7656 30.6094 11.0156L36.1875 8.67188L41.3437 17.5781L36.5156 21.2344C36.5469 21.4531 36.5625 21.6637 36.5625 21.8662V23.1319C36.5625 23.3356 36.5312 23.5469 36.4688 23.7656L41.2969 27.4219L36.1406 36.3281L30.6094 33.9844C30.2656 34.2344 29.9062 34.4688 29.5312 34.6875C29.1562 34.9062 28.7812 35.0937 28.4062 35.25L27.6562 41.25H17.3438ZM22.5938 29.0625C24.4062 29.0625 25.9531 28.4219 27.2344 27.1406C28.5156 25.8594 29.1562 24.3125 29.1562 22.5C29.1562 20.6875 28.5156 19.1406 27.2344 17.8594C25.9531 16.5781 24.4062 15.9375 22.5938 15.9375C20.75 15.9375 19.195 16.5781 17.9288 17.8594C16.6638 19.1406 16.0313 20.6875 16.0313 22.5C16.0313 24.3125 16.6638 25.8594 17.9288 27.1406C19.195 28.4219 20.75 29.0625 22.5938 29.0625Z" fill="#555555" fill-opacity="0.5"/>
</svg>
