<svg width="32" height="32" viewBox="0 0 32 32" fill="none" xmlns="http://www.w3.org/2000/svg">
<path d="M6.66699 13.3327H9.33366C12.0003 13.3327 13.3337 11.9993 13.3337 9.33268V6.66602C13.3337 3.99935 12.0003 2.66602 9.33366 2.66602H6.66699C4.00033 2.66602 2.66699 3.99935 2.66699 6.66602V9.33268C2.66699 11.9993 4.00033 13.3327 6.66699 13.3327Z" stroke="#292D32" stroke-width="1.5" stroke-miterlimit="10" stroke-linecap="round" stroke-linejoin="round"/>
<path d="M22.667 13.3327H25.3337C28.0003 13.3327 29.3337 11.9993 29.3337 9.33268V6.66602C29.3337 3.99935 28.0003 2.66602 25.3337 2.66602H22.667C20.0003 2.66602 18.667 3.99935 18.667 6.66602V9.33268C18.667 11.9993 20.0003 13.3327 22.667 13.3327Z" stroke="#292D32" stroke-width="1.5" stroke-miterlimit="10" stroke-linecap="round" stroke-linejoin="round"/>
<path d="M22.667 29.3327H25.3337C28.0003 29.3327 29.3337 27.9993 29.3337 25.3327V22.666C29.3337 19.9993 28.0003 18.666 25.3337 18.666H22.667C20.0003 18.666 18.667 19.9993 18.667 22.666V25.3327C18.667 27.9993 20.0003 29.3327 22.667 29.3327Z" stroke="#292D32" stroke-width="1.5" stroke-miterlimit="10" stroke-linecap="round" stroke-linejoin="round"/>
<path d="M6.66699 29.3327H9.33366C12.0003 29.3327 13.3337 27.9993 13.3337 25.3327V22.666C13.3337 19.9993 12.0003 18.666 9.33366 18.666H6.66699C4.00033 18.666 2.66699 19.9993 2.66699 22.666V25.3327C2.66699 27.9993 4.00033 29.3327 6.66699 29.3327Z" stroke="#292D32" stroke-width="1.5" stroke-miterlimit="10" stroke-linecap="round" stroke-linejoin="round"/>
</svg>
