<svg width="147" height="32" viewBox="0 0 147 32" fill="none" xmlns="http://www.w3.org/2000/svg">
<path d="M16.7067 27.2268H8.28002C4.06669 27.2268 2.66669 24.4268 2.66669 21.6134V10.3868C2.66669 6.17344 4.06669 4.77344 8.28002 4.77344H16.7067C20.92 4.77344 22.32 6.17344 22.32 10.3868V21.6134C22.32 25.8268 20.9067 27.2268 16.7067 27.2268Z" stroke="#292D32" stroke-width="1.5" stroke-linecap="round" stroke-linejoin="round"/>
<path d="M26.0267 22.8002L22.32 20.2002V11.7868L26.0267 9.18684C27.84 7.92018 29.3333 8.69351 29.3333 10.9202V21.0802C29.3333 23.3068 27.84 24.0802 26.0267 22.8002Z" stroke="#292D32" stroke-width="1.5" stroke-linecap="round" stroke-linejoin="round"/>
<path d="M15.3333 14.667C16.4379 14.667 17.3333 13.7716 17.3333 12.667C17.3333 11.5624 16.4379 10.667 15.3333 10.667C14.2287 10.667 13.3333 11.5624 13.3333 12.667C13.3333 13.7716 14.2287 14.667 15.3333 14.667Z" stroke="#292D32" stroke-width="1.5" stroke-linecap="round" stroke-linejoin="round"/>
<path d="M45.668 9.37891C44.7227 9.37891 43.8711 9.54297 43.1133 9.87109C42.3633 10.1914 41.7227 10.6602 41.1914 11.2773C40.668 11.8867 40.2656 12.625 39.9844 13.4922C39.7031 14.3594 39.5625 15.3359 39.5625 16.4219C39.5625 17.8594 39.7852 19.1094 40.2305 20.1719C40.6836 21.2266 41.3555 22.043 42.2461 22.6211C43.1445 23.1992 44.2656 23.4883 45.6094 23.4883C46.375 23.4883 47.0938 23.4258 47.7656 23.3008C48.4453 23.168 49.1055 23.0039 49.7461 22.8086V24.543C49.1211 24.7773 48.4648 24.9492 47.7773 25.0586C47.0898 25.1758 46.2734 25.2344 45.3281 25.2344C43.5859 25.2344 42.1289 24.875 40.957 24.1562C39.793 23.4297 38.918 22.4062 38.332 21.0859C37.7539 19.7656 37.4648 18.207 37.4648 16.4102C37.4648 15.1133 37.6445 13.9297 38.0039 12.8594C38.3711 11.7812 38.9023 10.8516 39.5977 10.0703C40.3008 9.28906 41.1602 8.6875 42.1758 8.26562C43.1992 7.83594 44.3711 7.62109 45.6914 7.62109C46.5586 7.62109 47.3945 7.70703 48.1992 7.87891C49.0039 8.05078 49.7305 8.29688 50.3789 8.61719L49.582 10.3047C49.0352 10.0547 48.4336 9.83984 47.7773 9.66016C47.1289 9.47266 46.4258 9.37891 45.668 9.37891ZM65.2022 18.5547C65.2022 19.6094 65.0655 20.5508 64.792 21.3789C64.5186 22.207 64.1241 22.9062 63.6084 23.4766C63.0928 24.0469 62.4678 24.4844 61.7334 24.7891C61.0069 25.0859 60.1827 25.2344 59.2608 25.2344C58.4014 25.2344 57.6123 25.0859 56.8936 24.7891C56.1827 24.4844 55.5655 24.0469 55.042 23.4766C54.5264 22.9062 54.1241 22.207 53.835 21.3789C53.5537 20.5508 53.4131 19.6094 53.4131 18.5547C53.4131 17.1484 53.6514 15.9531 54.128 14.9688C54.6045 13.9766 55.2842 13.2227 56.167 12.707C57.0577 12.1836 58.1162 11.9219 59.3428 11.9219C60.5147 11.9219 61.5381 12.1836 62.4131 12.707C63.2959 13.2305 63.9795 13.9883 64.4639 14.9805C64.9561 15.9648 65.2022 17.1562 65.2022 18.5547ZM55.4287 18.5547C55.4287 19.5859 55.5655 20.4805 55.8389 21.2383C56.1123 21.9961 56.5342 22.582 57.1045 22.9961C57.6748 23.4102 58.4092 23.6172 59.3077 23.6172C60.1983 23.6172 60.9287 23.4102 61.4991 22.9961C62.0772 22.582 62.503 21.9961 62.7764 21.2383C63.0498 20.4805 63.1866 19.5859 63.1866 18.5547C63.1866 17.5312 63.0498 16.6484 62.7764 15.9062C62.503 15.1562 62.0811 14.5781 61.5108 14.1719C60.9405 13.7656 60.2022 13.5625 59.2959 13.5625C57.96 13.5625 56.9795 14.0039 56.3545 14.8867C55.7373 15.7695 55.4287 16.9922 55.4287 18.5547ZM71.4825 25H69.5255V6.76562H71.4825V25ZM75.4659 19.4219V17.6875H81.2784V19.4219H75.4659ZM87.5353 25H85.5431V7.86719H95.0822V9.625H87.5353V15.9062H94.6252V17.6523H87.5353V25ZM100.554 12.1562V25H98.6086V12.1562H100.554ZM99.6047 7.35156C99.925 7.35156 100.198 7.45703 100.425 7.66797C100.659 7.87109 100.777 8.19141 100.777 8.62891C100.777 9.05859 100.659 9.37891 100.425 9.58984C100.198 9.80078 99.925 9.90625 99.6047 9.90625C99.2687 9.90625 98.9875 9.80078 98.7609 9.58984C98.5422 9.37891 98.4328 9.05859 98.4328 8.62891C98.4328 8.19141 98.5422 7.87109 98.7609 7.66797C98.9875 7.45703 99.2687 7.35156 99.6047 7.35156ZM107.596 25H105.639V6.76562H107.596V25ZM126.615 11.9219C128.029 11.9219 129.095 12.293 129.814 13.0352C130.533 13.7695 130.892 14.9531 130.892 16.5859V25H128.97V16.6797C128.97 15.6406 128.743 14.8633 128.29 14.3477C127.845 13.8242 127.181 13.5625 126.298 13.5625C125.056 13.5625 124.154 13.9219 123.591 14.6406C123.029 15.3594 122.747 16.418 122.747 17.8164V25H120.814V16.6797C120.814 15.9844 120.712 15.4062 120.509 14.9453C120.314 14.4844 120.017 14.1406 119.618 13.9141C119.228 13.6797 118.732 13.5625 118.13 13.5625C117.279 13.5625 116.595 13.7383 116.079 14.0898C115.564 14.4414 115.189 14.9648 114.954 15.6602C114.728 16.3477 114.615 17.1953 114.615 18.2031V25H112.669V12.1562H114.24L114.533 13.9727H114.638C114.896 13.5273 115.22 13.1523 115.611 12.8477C116.001 12.543 116.439 12.3125 116.923 12.1562C117.408 12 117.923 11.9219 118.47 11.9219C119.447 11.9219 120.263 12.1055 120.919 12.4727C121.583 12.832 122.064 13.3828 122.361 14.125H122.466C122.888 13.3828 123.466 12.832 124.2 12.4727C124.935 12.1055 125.74 11.9219 126.615 11.9219ZM144.157 21.4844C144.157 22.3047 143.95 22.9961 143.535 23.5586C143.129 24.1133 142.543 24.5312 141.778 24.8125C141.02 25.0938 140.114 25.2344 139.059 25.2344C138.16 25.2344 137.383 25.1641 136.727 25.0234C136.071 24.8828 135.496 24.6836 135.004 24.4258V22.6328C135.528 22.8906 136.153 23.125 136.879 23.3359C137.606 23.5469 138.348 23.6523 139.106 23.6523C140.215 23.6523 141.02 23.4727 141.52 23.1133C142.02 22.7539 142.27 22.2656 142.27 21.6484C142.27 21.2969 142.168 20.9883 141.965 20.7227C141.77 20.4492 141.438 20.1875 140.969 19.9375C140.5 19.6797 139.852 19.3984 139.024 19.0938C138.203 18.7812 137.493 18.4727 136.891 18.168C136.297 17.8555 135.836 17.4766 135.508 17.0312C135.188 16.5859 135.028 16.0078 135.028 15.2969C135.028 14.2109 135.465 13.3789 136.34 12.8008C137.223 12.2148 138.379 11.9219 139.809 11.9219C140.582 11.9219 141.305 12 141.977 12.1562C142.657 12.3047 143.289 12.5078 143.875 12.7656L143.219 14.3242C142.688 14.0977 142.121 13.9062 141.52 13.75C140.918 13.5938 140.305 13.5156 139.68 13.5156C138.782 13.5156 138.09 13.6641 137.606 13.9609C137.129 14.2578 136.891 14.6641 136.891 15.1797C136.891 15.5781 137 15.9062 137.219 16.1641C137.446 16.4219 137.805 16.6641 138.297 16.8906C138.789 17.1172 139.438 17.3828 140.243 17.6875C141.047 17.9844 141.743 18.293 142.328 18.6133C142.914 18.9258 143.364 19.3086 143.676 19.7617C143.996 20.207 144.157 20.7812 144.157 21.4844Z" fill="black"/>
</svg>
