<svg width="242" height="52" viewBox="0 0 242 52" fill="none" xmlns="http://www.w3.org/2000/svg">
<rect x="0.5" y="0.5" width="241" height="51" rx="11.5" fill="#540B0E"/>
<path d="M21.2358 30.4414C21.2358 31.457 20.9819 32.3242 20.4741 33.043C19.9741 33.7539 19.2709 34.2969 18.3647 34.6719C17.4584 35.0469 16.392 35.2344 15.1655 35.2344C14.517 35.2344 13.9037 35.2031 13.3256 35.1406C12.7475 35.0781 12.2162 34.9883 11.7319 34.8711C11.2475 34.7539 10.8217 34.6094 10.4545 34.4375V32.5273C11.0405 32.7695 11.7553 32.9961 12.5991 33.207C13.4428 33.4102 14.3256 33.5117 15.2475 33.5117C16.1069 33.5117 16.8334 33.3984 17.4272 33.1719C18.0209 32.9375 18.4702 32.6055 18.7748 32.1758C19.0873 31.7383 19.2436 31.2148 19.2436 30.6055C19.2436 30.0195 19.1147 29.5312 18.8569 29.1406C18.5991 28.7422 18.1694 28.3828 17.5678 28.0625C16.9741 27.7344 16.1616 27.3867 15.1303 27.0195C14.4037 26.7617 13.7631 26.4805 13.2084 26.1758C12.6537 25.8633 12.1889 25.5117 11.8139 25.1211C11.4389 24.7305 11.1537 24.2773 10.9584 23.7617C10.7709 23.2461 10.6772 22.6562 10.6772 21.9922C10.6772 21.0781 10.9077 20.2969 11.3686 19.6484C11.8373 18.9922 12.4819 18.4922 13.3022 18.1484C14.1303 17.7969 15.0795 17.6211 16.1498 17.6211C17.0639 17.6211 17.9077 17.707 18.6811 17.8789C19.4623 18.0508 20.1772 18.2812 20.8256 18.5703L20.2045 20.2812C19.5873 20.0234 18.9311 19.8086 18.2358 19.6367C17.5483 19.4648 16.8373 19.3789 16.103 19.3789C15.3686 19.3789 14.7475 19.4883 14.2397 19.707C13.7397 19.918 13.3569 20.2188 13.0912 20.6094C12.8256 21 12.6928 21.4648 12.6928 22.0039C12.6928 22.6055 12.8178 23.1055 13.0678 23.5039C13.3256 23.9023 13.7319 24.2578 14.2866 24.5703C14.8491 24.875 15.5912 25.1953 16.5131 25.5312C17.5209 25.8984 18.3764 26.2891 19.0795 26.7031C19.7827 27.1094 20.3178 27.6094 20.685 28.2031C21.0522 28.7891 21.2358 29.5352 21.2358 30.4414ZM29.5552 33.6406C29.8755 33.6406 30.2036 33.6133 30.5395 33.5586C30.8755 33.5039 31.1489 33.4375 31.3598 33.3594V34.8711C31.1333 34.9727 30.8169 35.0586 30.4106 35.1289C30.0122 35.1992 29.6216 35.2344 29.2387 35.2344C28.5591 35.2344 27.9419 35.1172 27.3872 34.8828C26.8325 34.6406 26.3872 34.2344 26.0512 33.6641C25.7231 33.0938 25.5591 32.3047 25.5591 31.2969V23.6797H23.7309V22.7305L25.5708 21.9688L26.3442 19.1797H27.5161V22.1562H31.2778V23.6797H27.5161V31.2383C27.5161 32.043 27.6997 32.6445 28.0669 33.043C28.4419 33.4414 28.938 33.6406 29.5552 33.6406ZM39.7261 21.9453C41.2573 21.9453 42.3941 22.2891 43.1362 22.9766C43.8784 23.6641 44.2495 24.7617 44.2495 26.2695V35H42.8316L42.4566 33.1016H42.3628C42.0034 33.5703 41.6284 33.9648 41.2378 34.2852C40.8472 34.5977 40.3941 34.8359 39.8784 35C39.3706 35.1562 38.7456 35.2344 38.0034 35.2344C37.2222 35.2344 36.5269 35.0977 35.9175 34.8242C35.3159 34.5508 34.8394 34.1367 34.4878 33.582C34.1441 33.0273 33.9722 32.3242 33.9722 31.4727C33.9722 30.1914 34.48 29.207 35.4956 28.5195C36.5112 27.832 38.0581 27.457 40.1362 27.3945L42.3511 27.3008V26.5156C42.3511 25.4062 42.1128 24.6289 41.6362 24.1836C41.1597 23.7383 40.4878 23.5156 39.6206 23.5156C38.9487 23.5156 38.3081 23.6133 37.6987 23.8086C37.0894 24.0039 36.5112 24.2344 35.9644 24.5L35.3667 23.0234C35.9448 22.7266 36.6089 22.4727 37.3589 22.2617C38.1089 22.0508 38.898 21.9453 39.7261 21.9453ZM42.3277 28.6719L40.3706 28.7539C38.7691 28.8164 37.6402 29.0781 36.9839 29.5391C36.3277 30 35.9995 30.6523 35.9995 31.4961C35.9995 32.2305 36.2222 32.7734 36.6675 33.125C37.1128 33.4766 37.7027 33.6523 38.437 33.6523C39.5777 33.6523 40.5112 33.3359 41.2378 32.7031C41.9644 32.0703 42.3277 31.1211 42.3277 29.8555V28.6719ZM55.0533 21.9219C55.3111 21.9219 55.5806 21.9375 55.8619 21.9688C56.1431 21.9922 56.3931 22.0273 56.6119 22.0742L56.3658 23.8789C56.1548 23.8242 55.9205 23.7812 55.6627 23.75C55.4048 23.7188 55.1627 23.7031 54.9361 23.7031C54.4205 23.7031 53.9322 23.8086 53.4712 24.0195C53.0181 24.2227 52.6197 24.5195 52.2759 24.9102C51.9322 25.293 51.6627 25.7578 51.4673 26.3047C51.272 26.8438 51.1744 27.4453 51.1744 28.1094V35H49.2173V22.1562H50.8345L51.0455 24.5234H51.1275C51.3931 24.0469 51.7134 23.6133 52.0884 23.2227C52.4634 22.8242 52.897 22.5078 53.3892 22.2734C53.8892 22.0391 54.4439 21.9219 55.0533 21.9219ZM64.1461 33.6406C64.4664 33.6406 64.7945 33.6133 65.1305 33.5586C65.4664 33.5039 65.7398 33.4375 65.9508 33.3594V34.8711C65.7242 34.9727 65.4078 35.0586 65.0016 35.1289C64.6031 35.1992 64.2125 35.2344 63.8297 35.2344C63.15 35.2344 62.5328 35.1172 61.9781 34.8828C61.4234 34.6406 60.9781 34.2344 60.6422 33.6641C60.3141 33.0938 60.15 32.3047 60.15 31.2969V23.6797H58.3219V22.7305L60.1617 21.9688L60.9352 19.1797H62.107V22.1562H65.8687V23.6797H62.107V31.2383C62.107 32.043 62.2906 32.6445 62.6578 33.043C63.0328 33.4414 63.5289 33.6406 64.1461 33.6406ZM85.0153 31.4844C85.0153 32.3047 84.8083 32.9961 84.3942 33.5586C83.988 34.1133 83.402 34.5312 82.6364 34.8125C81.8786 35.0938 80.9723 35.2344 79.9177 35.2344C79.0192 35.2344 78.2419 35.1641 77.5856 35.0234C76.9294 34.8828 76.3552 34.6836 75.863 34.4258V32.6328C76.3864 32.8906 77.0114 33.125 77.738 33.3359C78.4645 33.5469 79.2067 33.6523 79.9645 33.6523C81.0739 33.6523 81.8786 33.4727 82.3786 33.1133C82.8786 32.7539 83.1286 32.2656 83.1286 31.6484C83.1286 31.2969 83.027 30.9883 82.8239 30.7227C82.6286 30.4492 82.2966 30.1875 81.8278 29.9375C81.3591 29.6797 80.7106 29.3984 79.8825 29.0938C79.0622 28.7812 78.3512 28.4727 77.7497 28.168C77.1559 27.8555 76.695 27.4766 76.3669 27.0312C76.0466 26.5859 75.8864 26.0078 75.8864 25.2969C75.8864 24.2109 76.3239 23.3789 77.1989 22.8008C78.0817 22.2148 79.238 21.9219 80.6677 21.9219C81.4411 21.9219 82.1637 22 82.8356 22.1562C83.5153 22.3047 84.1481 22.5078 84.7341 22.7656L84.0778 24.3242C83.5466 24.0977 82.9802 23.9062 82.3786 23.75C81.777 23.5938 81.1637 23.5156 80.5387 23.5156C79.6403 23.5156 78.9489 23.6641 78.4645 23.9609C77.988 24.2578 77.7497 24.6641 77.7497 25.1797C77.7497 25.5781 77.8591 25.9062 78.0778 26.1641C78.3044 26.4219 78.6637 26.6641 79.1559 26.8906C79.6481 27.1172 80.2966 27.3828 81.1012 27.6875C81.9059 27.9844 82.6012 28.293 83.1872 28.6133C83.7731 28.9258 84.2223 29.3086 84.5348 29.7617C84.8552 30.207 85.0153 30.7812 85.0153 31.4844ZM93.2527 33.6406C93.573 33.6406 93.9011 33.6133 94.237 33.5586C94.573 33.5039 94.8464 33.4375 95.0573 33.3594V34.8711C94.8308 34.9727 94.5144 35.0586 94.1081 35.1289C93.7097 35.1992 93.3191 35.2344 92.9362 35.2344C92.2566 35.2344 91.6394 35.1172 91.0847 34.8828C90.53 34.6406 90.0847 34.2344 89.7487 33.6641C89.4206 33.0938 89.2566 32.3047 89.2566 31.2969V23.6797H87.4284V22.7305L89.2683 21.9688L90.0417 19.1797H91.2136V22.1562H94.9753V23.6797H91.2136V31.2383C91.2136 32.043 91.3972 32.6445 91.7644 33.043C92.1394 33.4414 92.6355 33.6406 93.2527 33.6406ZM104.455 21.9219C104.713 21.9219 104.982 21.9375 105.263 21.9688C105.545 21.9922 105.795 22.0273 106.013 22.0742L105.767 23.8789C105.556 23.8242 105.322 23.7812 105.064 23.75C104.806 23.7188 104.564 23.7031 104.338 23.7031C103.822 23.7031 103.334 23.8086 102.873 24.0195C102.42 24.2227 102.021 24.5195 101.677 24.9102C101.334 25.293 101.064 25.7578 100.869 26.3047C100.674 26.8438 100.576 27.4453 100.576 28.1094V35H98.6189V22.1562H100.236L100.447 24.5234H100.529C100.795 24.0469 101.115 23.6133 101.49 23.2227C101.865 22.8242 102.299 22.5078 102.791 22.2734C103.291 22.0391 103.845 21.9219 104.455 21.9219ZM114.345 21.9219C115.438 21.9219 116.376 22.1641 117.157 22.6484C117.938 23.1328 118.536 23.8125 118.95 24.6875C119.364 25.5547 119.571 26.5703 119.571 27.7344V28.9414H110.7C110.723 30.4492 111.098 31.5977 111.825 32.3867C112.552 33.1758 113.575 33.5703 114.895 33.5703C115.708 33.5703 116.427 33.4961 117.052 33.3477C117.677 33.1992 118.325 32.9805 118.997 32.6914V34.4023C118.348 34.6914 117.704 34.9023 117.063 35.0352C116.43 35.168 115.68 35.2344 114.813 35.2344C113.579 35.2344 112.501 34.9844 111.579 34.4844C110.665 33.9766 109.954 33.2344 109.446 32.2578C108.938 31.2812 108.684 30.0859 108.684 28.6719C108.684 27.2891 108.915 26.0938 109.376 25.0859C109.845 24.0703 110.501 23.2891 111.345 22.7422C112.196 22.1953 113.196 21.9219 114.345 21.9219ZM114.321 23.5156C113.282 23.5156 112.454 23.8555 111.837 24.5352C111.22 25.2148 110.852 26.1641 110.735 27.3828H117.532C117.524 26.6172 117.403 25.9453 117.169 25.3672C116.942 24.7812 116.595 24.3281 116.126 24.0078C115.657 23.6797 115.055 23.5156 114.321 23.5156ZM128.64 21.9453C130.172 21.9453 131.308 22.2891 132.051 22.9766C132.793 23.6641 133.164 24.7617 133.164 26.2695V35H131.746L131.371 33.1016H131.277C130.918 33.5703 130.543 33.9648 130.152 34.2852C129.762 34.5977 129.308 34.8359 128.793 35C128.285 35.1562 127.66 35.2344 126.918 35.2344C126.137 35.2344 125.441 35.0977 124.832 34.8242C124.23 34.5508 123.754 34.1367 123.402 33.582C123.058 33.0273 122.887 32.3242 122.887 31.4727C122.887 30.1914 123.394 29.207 124.41 28.5195C125.426 27.832 126.972 27.457 129.051 27.3945L131.265 27.3008V26.5156C131.265 25.4062 131.027 24.6289 130.551 24.1836C130.074 23.7383 129.402 23.5156 128.535 23.5156C127.863 23.5156 127.222 23.6133 126.613 23.8086C126.004 24.0039 125.426 24.2344 124.879 24.5L124.281 23.0234C124.859 22.7266 125.523 22.4727 126.273 22.2617C127.023 22.0508 127.812 21.9453 128.64 21.9453ZM131.242 28.6719L129.285 28.7539C127.683 28.8164 126.555 29.0781 125.898 29.5391C125.242 30 124.914 30.6523 124.914 31.4961C124.914 32.2305 125.137 32.7734 125.582 33.125C126.027 33.4766 126.617 33.6523 127.351 33.6523C128.492 33.6523 129.426 33.3359 130.152 32.7031C130.879 32.0703 131.242 31.1211 131.242 29.8555V28.6719ZM152.077 21.9219C153.491 21.9219 154.557 22.293 155.276 23.0352C155.995 23.7695 156.354 24.9531 156.354 26.5859V35H154.432V26.6797C154.432 25.6406 154.206 24.8633 153.753 24.3477C153.307 23.8242 152.643 23.5625 151.761 23.5625C150.518 23.5625 149.616 23.9219 149.054 24.6406C148.491 25.3594 148.21 26.418 148.21 27.8164V35H146.276V26.6797C146.276 25.9844 146.175 25.4062 145.972 24.9453C145.776 24.4844 145.479 24.1406 145.081 23.9141C144.69 23.6797 144.194 23.5625 143.593 23.5625C142.741 23.5625 142.057 23.7383 141.542 24.0898C141.026 24.4414 140.651 24.9648 140.417 25.6602C140.19 26.3477 140.077 27.1953 140.077 28.2031V35H138.132V22.1562H139.702L139.995 23.9727H140.1C140.358 23.5273 140.682 23.1523 141.073 22.8477C141.464 22.543 141.901 22.3125 142.386 22.1562C142.87 22 143.386 21.9219 143.932 21.9219C144.909 21.9219 145.725 22.1055 146.382 22.4727C147.046 22.832 147.526 23.3828 147.823 24.125H147.929C148.35 23.3828 148.929 22.832 149.663 22.4727C150.397 22.1055 151.202 21.9219 152.077 21.9219ZM163.256 22.1562V35H161.31V22.1562H163.256ZM162.307 17.3516C162.627 17.3516 162.9 17.457 163.127 17.668C163.361 17.8711 163.478 18.1914 163.478 18.6289C163.478 19.0586 163.361 19.3789 163.127 19.5898C162.9 19.8008 162.627 19.9062 162.307 19.9062C161.971 19.9062 161.689 19.8008 161.463 19.5898C161.244 19.3789 161.135 19.0586 161.135 18.6289C161.135 18.1914 161.244 17.8711 161.463 17.668C161.689 17.457 161.971 17.3516 162.307 17.3516ZM174.423 21.9219C175.946 21.9219 177.099 22.2969 177.88 23.0469C178.661 23.7891 179.052 24.9844 179.052 26.6328V35H177.13V26.7617C177.13 25.6914 176.884 24.8906 176.392 24.3594C175.907 23.8281 175.161 23.5625 174.153 23.5625C172.731 23.5625 171.731 23.9648 171.153 24.7695C170.575 25.5742 170.286 26.7422 170.286 28.2734V35H168.341V22.1562H169.911L170.204 24.0078H170.31C170.583 23.5547 170.931 23.1758 171.352 22.8711C171.774 22.5586 172.247 22.3242 172.77 22.168C173.294 22.0039 173.845 21.9219 174.423 21.9219ZM187.605 40.7656C185.918 40.7656 184.617 40.4492 183.703 39.8164C182.789 39.1914 182.332 38.3125 182.332 37.1797C182.332 36.375 182.586 35.6875 183.094 35.1172C183.609 34.5469 184.32 34.168 185.227 33.9805C184.891 33.8242 184.602 33.5898 184.359 33.2773C184.125 32.9648 184.008 32.6055 184.008 32.1992C184.008 31.7305 184.137 31.3203 184.395 30.9688C184.66 30.6094 185.062 30.2656 185.602 29.9375C184.93 29.6641 184.383 29.2031 183.961 28.5547C183.547 27.8984 183.34 27.1367 183.34 26.2695C183.34 25.3477 183.531 24.5625 183.914 23.9141C184.297 23.2578 184.852 22.7578 185.578 22.4141C186.305 22.0703 187.184 21.8984 188.215 21.8984C188.441 21.8984 188.668 21.9102 188.895 21.9336C189.129 21.9492 189.352 21.9766 189.562 22.0156C189.773 22.0469 189.957 22.0859 190.113 22.1328H194.52V23.3867L192.152 23.6797C192.387 23.9844 192.582 24.3516 192.738 24.7812C192.895 25.2109 192.973 25.6875 192.973 26.2109C192.973 27.4922 192.539 28.5117 191.672 29.2695C190.805 30.0195 189.613 30.3945 188.098 30.3945C187.738 30.3945 187.371 30.3633 186.996 30.3008C186.613 30.5117 186.32 30.7461 186.117 31.0039C185.922 31.2617 185.824 31.5586 185.824 31.8945C185.824 32.1445 185.898 32.3438 186.047 32.4922C186.203 32.6406 186.426 32.75 186.715 32.8203C187.004 32.8828 187.352 32.9141 187.758 32.9141H190.02C191.418 32.9141 192.488 33.207 193.23 33.793C193.98 34.3789 194.355 35.2344 194.355 36.3594C194.355 37.7812 193.777 38.8711 192.621 39.6289C191.465 40.3867 189.793 40.7656 187.605 40.7656ZM187.664 39.2422C188.727 39.2422 189.605 39.1328 190.301 38.9141C191.004 38.7031 191.527 38.3945 191.871 37.9883C192.223 37.5898 192.398 37.1133 192.398 36.5586C192.398 36.043 192.281 35.6523 192.047 35.3867C191.812 35.1289 191.469 34.957 191.016 34.8711C190.562 34.7773 190.008 34.7305 189.352 34.7305H187.125C186.547 34.7305 186.043 34.8203 185.613 35C185.184 35.1797 184.852 35.4453 184.617 35.7969C184.391 36.1484 184.277 36.5859 184.277 37.1094C184.277 37.8047 184.57 38.332 185.156 38.6914C185.742 39.0586 186.578 39.2422 187.664 39.2422ZM188.168 28.9766C189.098 28.9766 189.797 28.7422 190.266 28.2734C190.734 27.8047 190.969 27.1211 190.969 26.2227C190.969 25.2617 190.73 24.543 190.254 24.0664C189.777 23.582 189.074 23.3398 188.145 23.3398C187.254 23.3398 186.566 23.5898 186.082 24.0898C185.605 24.582 185.367 25.3047 185.367 26.2578C185.367 27.1328 185.609 27.8047 186.094 28.2734C186.578 28.7422 187.27 28.9766 188.168 28.9766Z" fill="white"/>
<path d="M208.333 28.0005V23.2538C208.333 17.3605 212.506 14.9472 217.613 17.8938L221.733 20.2672L225.853 22.6405C230.96 25.5872 230.96 30.4138 225.853 33.3605L221.733 35.7338L217.613 38.1072C212.506 41.0538 208.333 38.6405 208.333 32.7472V28.0005Z" stroke="white" stroke-width="1.5" stroke-miterlimit="10" stroke-linecap="round" stroke-linejoin="round"/>
<rect x="0.5" y="0.5" width="241" height="51" rx="11.5" stroke="black"/>
</svg>
