<svg width="40" height="40" viewBox="0 0 40 40" fill="none" xmlns="http://www.w3.org/2000/svg">
<path d="M20.033 4.84961C14.5163 4.84961 10.033 9.33294 10.033 14.8496V19.6663C10.033 20.6829 9.59966 22.2329 9.08299 23.0996L7.16633 26.2829C5.98299 28.2496 6.79966 30.4329 8.96633 31.1663C16.1497 33.5663 23.8997 33.5663 31.083 31.1663C33.0997 30.4996 33.983 28.1163 32.883 26.2829L30.9663 23.0996C30.4663 22.2329 30.033 20.6829 30.033 19.6663V14.8496C30.033 9.34961 25.533 4.84961 20.033 4.84961Z" stroke="#111111" stroke-width="1.5" stroke-miterlimit="10" stroke-linecap="round"/>
<path d="M23.1169 5.33242C22.6002 5.18242 22.0669 5.06576 21.5169 4.99909C19.9169 4.79909 18.3835 4.91576 16.9502 5.33242C17.4335 4.09909 18.6335 3.23242 20.0335 3.23242C21.4335 3.23242 22.6335 4.09909 23.1169 5.33242Z" stroke="#111111" stroke-width="1.5" stroke-miterlimit="10" stroke-linecap="round" stroke-linejoin="round"/>
<path d="M25.0332 31.7676C25.0332 34.5176 22.7832 36.7676 20.0332 36.7676C18.6665 36.7676 17.3999 36.2009 16.4999 35.3009C15.5999 34.4009 15.0332 33.1342 15.0332 31.7676" stroke="#111111" stroke-width="1.5" stroke-miterlimit="10"/>
</svg>
