<svg width="32" height="32" viewBox="0 0 32 32" fill="none" xmlns="http://www.w3.org/2000/svg">
<path d="M17.187 7.83984H6.81364C4.53364 7.83984 2.66699 9.70649 2.66699 11.9865V27.1332C2.66699 29.0665 4.05366 29.8932 5.74699 28.9465L10.987 26.0265C11.547 25.7198 12.4537 25.7198 13.0003 26.0265L18.2403 28.9465C19.9336 29.8932 21.3203 29.0665 21.3203 27.1332V11.9865C21.3336 9.70649 19.467 7.83984 17.187 7.83984Z" stroke="#292D32" stroke-width="1.5" stroke-linecap="round" stroke-linejoin="round"/>
<path d="M21.3337 11.9865V27.1332C21.3337 29.0665 19.947 29.8798 18.2537 28.9465L13.0137 26.0265C12.4537 25.7198 11.547 25.7198 10.987 26.0265L5.74699 28.9465C4.05366 29.8798 2.66699 29.0665 2.66699 27.1332V11.9865C2.66699 9.70649 4.53364 7.83984 6.81364 7.83984H17.187C19.467 7.83984 21.3337 9.70649 21.3337 11.9865Z" stroke="#292D32" stroke-width="1.5" stroke-linecap="round" stroke-linejoin="round"/>
<path d="M29.3337 6.81266V21.9593C29.3337 23.8927 27.947 24.706 26.2537 23.7727L21.3337 21.026V11.986C21.3337 9.706 19.467 7.83936 17.187 7.83936H10.667V6.81266C10.667 4.53266 12.5336 2.66602 14.8136 2.66602H25.187C27.467 2.66602 29.3337 4.53266 29.3337 6.81266Z" stroke="#292D32" stroke-width="1.5" stroke-linecap="round" stroke-linejoin="round"/>
</svg>
