<svg width="32" height="32" viewBox="0 0 32 32" fill="none" xmlns="http://www.w3.org/2000/svg">
<path d="M29.3337 11.9993V19.9993C29.3337 20.306 29.3337 20.5993 29.307 20.8927C29.2537 20.8127 29.187 20.7327 29.1203 20.666C29.107 20.6527 29.0937 20.626 29.0803 20.6127C28.0003 19.4127 26.4137 18.666 24.667 18.666C22.987 18.666 21.4537 19.3593 20.3603 20.4793C19.307 21.5593 18.667 23.0393 18.667 24.666C18.667 25.786 18.987 26.8527 19.5336 27.7594C19.827 28.2527 20.2003 28.706 20.627 29.0793C20.6537 29.0927 20.667 29.106 20.6803 29.1194C20.747 29.186 20.8137 29.2393 20.8937 29.306C20.6137 29.3327 20.307 29.3327 20.0003 29.3327H12.0003C5.33366 29.3327 2.66699 26.666 2.66699 19.9993V11.9993C2.66699 5.33268 5.33366 2.66602 12.0003 2.66602H20.0003C26.667 2.66602 29.3337 5.33268 29.3337 11.9993Z" stroke="#111111" stroke-width="1.5" stroke-linecap="round" stroke-linejoin="round"/>
<path d="M3.36035 9.48047H28.6403" stroke="#111111" stroke-width="1.5" stroke-linecap="round" stroke-linejoin="round"/>
<path d="M11.3604 2.8125V9.29248" stroke="#111111" stroke-width="1.5" stroke-linecap="round" stroke-linejoin="round"/>
<path d="M20.6406 2.8125V8.69255" stroke="#111111" stroke-width="1.5" stroke-linecap="round" stroke-linejoin="round"/>
<path d="M30.667 24.666C30.667 25.146 30.6137 25.6127 30.4937 26.066C30.347 26.666 30.107 27.2394 29.8003 27.7594C28.7603 29.4927 26.8537 30.666 24.667 30.666C23.227 30.666 21.9203 30.1593 20.907 29.306C20.8936 29.306 20.8937 29.306 20.8937 29.306C20.8137 29.2393 20.747 29.1861 20.6803 29.1194C20.667 29.1061 20.6537 29.0927 20.627 29.0793C20.2003 28.706 19.827 28.2527 19.5337 27.7594C18.987 26.8527 18.667 25.786 18.667 24.666C18.667 23.0393 19.307 21.5593 20.3603 20.4793C21.4537 19.3593 22.987 18.666 24.667 18.666C26.4137 18.666 28.0003 19.4127 29.0803 20.6127C29.0937 20.626 29.107 20.6527 29.1203 20.666C29.187 20.7327 29.2537 20.8127 29.307 20.8927C30.1603 21.9193 30.667 23.2393 30.667 24.666Z" stroke="#111111" stroke-width="1.5" stroke-miterlimit="10" stroke-linecap="round" stroke-linejoin="round"/>
<path d="M26.9067 24.6406H22.4268" stroke="#111111" stroke-width="1.5" stroke-miterlimit="10" stroke-linecap="round" stroke-linejoin="round"/>
<path d="M24.667 22.4531V26.9331" stroke="#111111" stroke-width="1.5" stroke-miterlimit="10" stroke-linecap="round" stroke-linejoin="round"/>
</svg>
