<svg width="94" height="94" viewBox="0 0 94 94" fill="none" xmlns="http://www.w3.org/2000/svg">
<path d="M90.6711 52.2649C92.3765 49.5577 93.341 46.67 93.341 43.1789C93.341 35.1547 86.1036 27.5772 76.6524 27.5772H69.5585C70.5153 25.2419 71.2795 22.449 71.2795 19.0928C71.2795 5.82208 63.9503 0 52.7532 0C40.7731 0 41.4564 17.3067 38.7988 19.7983C34.3754 23.9452 29.1506 31.9119 25.4277 35.0025H6.22273C2.78604 35.0025 0 37.6144 0 40.8363V84.5894C0 87.8112 2.78604 90.4231 6.22273 90.4231H18.6682C21.5643 90.4231 23.998 88.5684 24.6922 86.0569C33.3474 86.2394 39.2884 93.3382 59.2677 93.3382C60.6717 93.3382 62.2273 93.34 63.5886 93.34C78.5848 93.34 85.3654 86.153 85.5509 75.9609C88.141 72.6019 89.4983 68.0995 88.9229 63.7483C90.8391 60.3844 91.58 56.3936 90.6711 52.2649ZM78.6631 62.0784C81.1056 65.9305 78.9082 71.0861 75.9524 72.5737C77.4497 81.4665 72.5283 84.5875 65.6226 84.5875H58.2681C44.3372 84.5875 35.3162 77.6928 24.8909 77.6928V43.7531H27.0144C32.5293 43.7531 40.2339 30.8295 45.3987 25.9857C50.9136 20.8155 49.076 12.198 52.7532 8.75062C61.9454 8.75062 61.9454 14.763 61.9454 19.0928C61.9454 26.2336 56.4305 29.4331 56.4305 36.3279H76.6524C80.7575 36.3279 83.9894 39.7752 84.0069 43.2226C84.0244 46.6682 81.5139 50.1156 79.6763 50.1156C82.2994 52.769 82.8598 58.3623 78.6631 62.0784ZM17.1125 78.7556C17.1125 81.1721 15.023 83.1309 12.4455 83.1309C9.8679 83.1309 7.77842 81.1721 7.77842 78.7556C7.77842 76.3392 9.8679 74.3803 12.4455 74.3803C15.023 74.3803 17.1125 76.3392 17.1125 78.7556Z" fill="#540B0E"/>
</svg>
